<?xml version="1.0"?>
<svg xmlns="http://www.w3.org/2000/svg" xmlns:xlink="http://www.w3.org/1999/xlink" data-v-decfdd8a="" version="1.0" width="100%" height="100%" viewBox="0 0 340.000000 250.000000" preserveAspectRatio="xMidYMid meet" color-interpolation-filters="sRGB" style="margin: auto;">
  <rect data-v-decfdd8a="" x="0" y="0" width="100%" height="100%" fill="#ffffff" fill-opacity="1" class="background"/>
  <g data-v-decfdd8a="" fill="#212121" class="basesvg" transform="translate(108.14599776268005,95.96199989318848)">
    <g data-gra="path-name" fill-rule="" class="tp-name" transform="translate(0,0)">
      <g transform="scale(1)">
        <g>
          <path d="M5.21-4.34L5.21-34.28Q5.21-35.54 5.33-36.74 5.45-37.94 5.9-38.89 6.36-39.84 7.24-40.43 8.12-41.02 9.67-41.02L9.67-41.02Q11.34-41.02 12.28-40.43 13.21-39.84 13.65-38.89 14.09-37.94 14.19-36.74 14.3-35.54 14.3-34.28L14.3-34.28 14.3-8.61 20.04-8.61Q21.24-8.61 22.41-8.5 23.58-8.38 24.51-7.94 25.43-7.5 25.99-6.65 26.54-5.8 26.54-4.34L26.54-4.34Q26.54-2.84 25.99-1.98 25.43-1.11 24.51-0.67 23.58-0.23 22.41-0.12 21.24 0 20.04 0L20.04 0 11.72 0Q10.17 0 8.96-0.12 7.76-0.23 6.93-0.67 6.09-1.11 5.65-1.98 5.21-2.84 5.21-4.34L5.21-4.34ZM32.87-6.56L32.87-22.73Q32.87-23.96 33-25.14 33.13-26.31 33.6-27.23 34.07-28.15 34.95-28.73 35.83-29.3 37.32-29.3L37.32-29.3Q38.82-29.3 39.7-28.73 40.58-28.15 41.04-27.23 41.51-26.31 41.65-25.14 41.78-23.96 41.78-22.73L41.78-22.73 41.78-6.56Q41.78-5.33 41.65-4.15 41.51-2.96 41.04-2.04 40.58-1.11 39.7-0.56 38.82 0 37.32 0L37.32 0Q35.83 0 34.95-0.56 34.07-1.11 33.6-2.04 33.13-2.96 33-4.15 32.87-5.33 32.87-6.56L32.87-6.56ZM41.84-36.56L41.84-36.56Q41.84-34.31 40.66-33.21 39.49-32.11 37.38-32.11L37.38-32.11Q35.27-32.11 34.1-33.21 32.93-34.31 32.93-36.56L32.93-36.56Q32.93-38.91 34.1-39.96 35.27-41.02 37.38-41.02L37.38-41.02Q39.64-41.02 40.74-39.96 41.84-38.91 41.84-36.56ZM52.62-29.3L54.26-29.3 54.26-34.45Q54.26-35.68 54.39-36.86 54.52-38.03 54.99-38.95 55.46-39.87 56.34-40.44 57.22-41.02 58.71-41.02L58.71-41.02Q60.18-41.02 61.05-40.44 61.93-39.87 62.39-38.95 62.84-38.03 62.97-36.86 63.11-35.68 63.11-34.45L63.11-34.45 63.11-29.3 65.51-29.3Q66.27-29.3 67.03-29.22 67.79-29.15 68.39-28.8 68.99-28.45 69.36-27.74 69.73-27.04 69.73-25.78L69.73-25.78Q69.73-24.58 69.36-23.88 68.99-23.17 68.39-22.82 67.79-22.47 67.03-22.37 66.27-22.27 65.51-22.27L65.51-22.27 63.11-22.27 63.11-12.01Q63.11-11.43 63.15-10.77 63.19-10.11 63.46-9.55 63.72-8.99 64.25-8.63 64.78-8.26 65.74-8.26L65.74-8.26Q66.8-8.26 67.54-8.1 68.29-7.94 68.77-7.53 69.26-7.12 69.49-6.39 69.73-5.65 69.73-4.51L69.73-4.51Q69.73-3.34 69.18-2.49 68.64-1.64 67.73-1.08 66.83-0.53 65.63-0.26 64.42 0 63.11 0L63.11 0Q61.03 0 59.55-0.44 58.07-0.88 57.08-1.68 56.1-2.49 55.53-3.62 54.96-4.75 54.68-6.15 54.4-7.56 54.33-9.18 54.26-10.81 54.26-12.6L54.26-12.6 54.26-22.27 52.62-22.27Q51.86-22.27 51.11-22.37 50.36-22.47 49.78-22.82 49.19-23.17 48.82-23.88 48.46-24.58 48.46-25.78L48.46-25.78Q48.46-27.04 48.82-27.74 49.19-28.45 49.78-28.8 50.36-29.15 51.11-29.22 51.86-29.3 52.62-29.3L52.62-29.3ZM75.64-10.43L75.64-22.62Q75.64-23.88 75.79-25.08 75.94-26.28 76.42-27.22 76.9-28.15 77.8-28.73 78.69-29.3 80.21-29.3L80.21-29.3Q81.71-29.3 82.59-28.73 83.47-28.15 83.94-27.22 84.4-26.28 84.54-25.08 84.67-23.88 84.67-22.62L84.67-22.62 84.67-11.19Q84.67-10.34 84.74-9.57 84.81-8.79 85.08-8.19 85.34-7.59 85.85-7.22 86.37-6.86 87.25-6.86L87.25-6.86Q88.42-6.86 89.17-7.65 89.91-8.44 90.34-9.81 90.76-11.19 90.91-13.05 91.05-14.91 91.05-17.05L91.05-17.05 91.05-22.62Q91.05-23.88 91.2-25.08 91.35-26.28 91.83-27.22 92.31-28.15 93.21-28.73 94.1-29.3 95.63-29.3L95.63-29.3Q97.12-29.3 98-28.73 98.88-28.15 99.35-27.22 99.81-26.28 99.95-25.08 100.08-23.88 100.08-22.62L100.08-22.62 100.08-6.62Q100.08-5.36 99.99-4.17 99.9-2.99 99.46-2.07 99.02-1.14 98.13-0.57 97.24 0 95.63 0L95.63 0Q94.01 0 93.11-0.54 92.2-1.08 91.74-1.85 91.29-2.61 91.17-3.46 91.05-4.31 91.05-4.92L91.05-4.92Q90.82-4.07 90.32-3.19 89.82-2.31 89.05-1.61 88.27-0.91 87.19-0.45 86.1 0 84.67 0L84.67 0Q83.06 0 81.45-0.53 79.83-1.05 78.54-2.29 77.26-3.52 76.45-5.51 75.64-7.5 75.64-10.43L75.64-10.43ZM125.04-29.3L125.04-29.3Q125.54-29.3 126.09-29.12 126.65-28.95 127.27-28.54L127.27-28.54Q128.14-27.95 128.53-27.28 128.91-26.6 128.91-25.84L128.91-25.84Q128.91-24.87 128.44-23.82 127.97-22.76 127.27-21.8L127.27-21.8 122.05-14.65 127.27-7.56Q127.94-6.53 128.42-5.51 128.91-4.48 128.91-3.52L128.91-3.52Q128.91-2.75 128.53-2.05 128.14-1.35 127.27-0.76L127.27-0.76Q126.09 0 125.1 0L125.1 0Q124.48 0 123.94-0.26 123.4-0.53 122.92-0.97 122.43-1.41 121.98-1.99 121.52-2.58 121.05-3.22L121.05-3.22 117.54-8.14 113.91-3.22Q113.5-2.55 113.06-1.96 112.62-1.38 112.13-0.94 111.65-0.5 111.12-0.25 110.6 0 109.98 0L109.98 0Q108.98 0 107.81-0.76L107.81-0.76Q106.93-1.38 106.55-2.07 106.17-2.75 106.17-3.52L106.17-3.52Q106.17-4.48 106.66-5.51 107.14-6.53 107.81-7.56L107.81-7.56 112.73-14.65 107.81-21.8Q107.14-22.82 106.66-23.82 106.17-24.81 106.17-25.78L106.17-25.78Q106.17-26.54 106.55-27.23 106.93-27.92 107.81-28.54L107.81-28.54Q108.98-29.3 109.98-29.3L109.98-29.3Q110.6-29.3 111.12-29.05 111.65-28.8 112.13-28.36 112.62-27.92 113.06-27.35 113.5-26.78 113.91-26.13L113.91-26.13 117.54-21.21 121.05-26.13Q121.49-26.78 121.93-27.35 122.37-27.92 122.86-28.36 123.34-28.8 123.88-29.05 124.42-29.3 125.04-29.3Z" transform="translate(-5.210000038146973, 41.02000045776367)"/>
        </g>
        <!---->
        <!---->
        <!---->
        <!---->
        <!---->
        <!---->
        <!---->
      </g>
    </g>
    <g data-gra="path-slogan" fill-rule="" class="tp-slogan" fill="#022244" transform="translate(-3.204998016357422,48.02000045776367)">
      <!---->
      <!---->
      <g transform="scale(1, 1)">
        <g transform="scale(1)">
          <path d="M2.71 0L2.71-7.03L0.34-7.03L0.34-7.87L6.10-7.87L6.10-7.03L3.72-7.03L3.72 0L2.71 0ZM7.51 0L7.51-7.87L12.05-7.87L12.05-7.03L8.51-7.03L8.51-4.56L11.50-4.56L11.50-3.71L8.51-3.71L8.51-0.85L12.17-0.85L12.17 0L7.51 0ZM13.38-3.94L13.38-3.94Q13.38-4.88 13.64-5.64Q13.91-6.40 14.38-6.92Q14.84-7.45 15.49-7.73Q16.13-8.02 16.88-8.02L16.88-8.02Q17.60-8.02 18.14-7.72Q18.68-7.43 19.03-7.04L19.03-7.04L18.47-6.41Q18.16-6.74 17.78-6.94Q17.40-7.14 16.90-7.14L16.90-7.14Q16.33-7.14 15.88-6.92Q15.42-6.70 15.10-6.28Q14.77-5.87 14.59-5.28Q14.41-4.69 14.41-3.96L14.41-3.96Q14.41-3.22 14.59-2.62Q14.76-2.03 15.07-1.61Q15.38-1.19 15.83-0.96Q16.28-0.73 16.85-0.73L16.85-0.73Q17.42-0.73 17.85-0.96Q18.28-1.19 18.66-1.61L18.66-1.61L19.22-1.00Q18.76-0.46 18.17-0.16Q17.58 0.14 16.82 0.14L16.82 0.14Q16.08 0.14 15.45-0.13Q14.82-0.41 14.36-0.93Q13.90-1.45 13.64-2.21Q13.38-2.98 13.38-3.94ZM20.69 0L20.69-7.87L21.68-7.87L21.68-4.57L25.34-4.57L25.34-7.87L26.35-7.87L26.35 0L25.34 0L25.34-3.71L21.68-3.71L21.68 0L20.69 0ZM28.51 0L28.51-7.87L29.54-7.87L32.39-2.93L33.24-1.30L33.29-1.30Q33.25-1.90 33.21-2.54Q33.17-3.18 33.17-3.80L33.17-3.80L33.17-7.87L34.12-7.87L34.12 0L33.08 0L30.23-4.96L29.38-6.58L29.33-6.58Q29.38-5.98 29.42-5.36Q29.46-4.74 29.46-4.12L29.46-4.12L29.46 0L28.51 0ZM39.18 0.14L39.18 0.14Q38.44 0.14 37.82-0.14Q37.20-0.43 36.76-0.97Q36.31-1.50 36.07-2.26Q35.82-3.02 35.82-3.97L35.82-3.97Q35.82-4.92 36.07-5.67Q36.31-6.42 36.76-6.94Q37.20-7.46 37.82-7.74Q38.44-8.02 39.18-8.02L39.18-8.02Q39.92-8.02 40.54-7.73Q41.16-7.45 41.61-6.93Q42.06-6.41 42.31-5.66Q42.55-4.91 42.55-3.97L42.55-3.97Q42.55-3.02 42.31-2.26Q42.06-1.50 41.61-0.97Q41.16-0.43 40.54-0.14Q39.92 0.14 39.18 0.14ZM39.18-0.73L39.18-0.73Q39.71-0.73 40.13-0.96Q40.56-1.19 40.87-1.61Q41.17-2.04 41.34-2.63Q41.51-3.23 41.51-3.97L41.51-3.97Q41.51-4.70 41.34-5.29Q41.17-5.88 40.87-6.29Q40.56-6.70 40.13-6.92Q39.71-7.14 39.18-7.14L39.18-7.14Q38.65-7.14 38.23-6.92Q37.80-6.70 37.49-6.29Q37.19-5.88 37.02-5.29Q36.85-4.70 36.85-3.97L36.85-3.97Q36.85-3.23 37.02-2.63Q37.19-2.04 37.49-1.61Q37.80-1.19 38.23-0.96Q38.65-0.73 39.18-0.73ZM44.24 0L44.24-7.87L45.24-7.87L45.24-0.85L48.68-0.85L48.68 0L44.24 0ZM52.67 0.14L52.67 0.14Q51.92 0.14 51.31-0.14Q50.69-0.43 50.24-0.97Q49.80-1.50 49.55-2.26Q49.31-3.02 49.31-3.97L49.31-3.97Q49.31-4.92 49.55-5.67Q49.80-6.42 50.24-6.94Q50.69-7.46 51.31-7.74Q51.92-8.02 52.67-8.02L52.67-8.02Q53.41-8.02 54.03-7.73Q54.65-7.45 55.10-6.93Q55.55-6.41 55.79-5.66Q56.04-4.91 56.04-3.97L56.04-3.97Q56.04-3.02 55.79-2.26Q55.55-1.50 55.10-0.97Q54.65-0.43 54.03-0.14Q53.41 0.14 52.67 0.14ZM52.67-0.73L52.67-0.73Q53.20-0.73 53.62-0.96Q54.05-1.19 54.35-1.61Q54.66-2.04 54.83-2.63Q55.00-3.23 55.00-3.97L55.00-3.97Q55.00-4.70 54.83-5.29Q54.66-5.88 54.35-6.29Q54.05-6.70 53.62-6.92Q53.20-7.14 52.67-7.14L52.67-7.14Q52.14-7.14 51.71-6.92Q51.29-6.70 50.98-6.29Q50.68-5.88 50.51-5.29Q50.34-4.70 50.34-3.97L50.34-3.97Q50.34-3.23 50.51-2.63Q50.68-2.04 50.98-1.61Q51.29-1.19 51.71-0.96Q52.14-0.73 52.67-0.73ZM57.28-3.94L57.28-3.94Q57.28-4.88 57.55-5.64Q57.82-6.40 58.30-6.92Q58.79-7.45 59.45-7.73Q60.11-8.02 60.90-8.02L60.90-8.02Q61.72-8.02 62.26-7.71Q62.81-7.40 63.16-7.04L63.16-7.04L62.59-6.41Q62.29-6.72 61.90-6.93Q61.51-7.14 60.91-7.14L60.91-7.14Q60.31-7.14 59.83-6.92Q59.35-6.70 59.02-6.28Q58.68-5.87 58.49-5.28Q58.31-4.69 58.31-3.96L58.31-3.96Q58.31-3.22 58.48-2.62Q58.66-2.03 58.99-1.61Q59.32-1.19 59.80-0.96Q60.29-0.73 60.92-0.73L60.92-0.73Q61.34-0.73 61.72-0.86Q62.10-0.98 62.34-1.20L62.34-1.20L62.34-3.25L60.67-3.25L60.67-4.08L63.25-4.08L63.25-0.77Q62.87-0.37 62.24-0.11Q61.61 0.14 60.82 0.14L60.82 0.14Q60.04 0.14 59.39-0.13Q58.74-0.41 58.27-0.93Q57.80-1.45 57.54-2.21Q57.28-2.98 57.28-3.94ZM66.41 0L66.41-3.05L64.04-7.87L65.11-7.87L66.13-5.65Q66.32-5.22 66.50-4.80Q66.68-4.38 66.89-3.94L66.89-3.94L66.94-3.94Q67.14-4.38 67.34-4.80Q67.55-5.22 67.73-5.65L67.73-5.65L68.74-7.87L69.78-7.87L67.42-3.05L67.42 0L66.41 0ZM69.48 2.04L69.24 1.46Q69.74 1.24 70.03 0.86Q70.32 0.49 70.32 0L70.32 0Q70.28 0.01 70.20 0.01L70.20 0.01Q69.91 0.01 69.70-0.16Q69.49-0.34 69.49-0.67L69.49-0.67Q69.49-1.00 69.71-1.18Q69.92-1.37 70.22-1.37L70.22-1.37Q70.61-1.37 70.83-1.06Q71.05-0.74 71.05-0.20L71.05-0.20Q71.05 0.58 70.63 1.15Q70.21 1.73 69.48 2.04L69.48 2.04ZM74.59-1.02L75.19-1.72Q75.61-1.27 76.18-1.00Q76.75-0.73 77.36-0.73L77.36-0.73Q78.14-0.73 78.58-1.09Q79.01-1.44 79.01-2.02L79.01-2.02Q79.01-2.32 78.91-2.53Q78.80-2.74 78.63-2.89Q78.46-3.04 78.22-3.16Q77.98-3.28 77.70-3.41L77.70-3.41L76.57-3.90Q76.30-4.02 76.01-4.19Q75.72-4.36 75.49-4.60Q75.26-4.84 75.12-5.17Q74.98-5.50 74.98-5.93L74.98-5.93Q74.98-6.37 75.16-6.76Q75.35-7.14 75.68-7.42Q76.01-7.70 76.46-7.86Q76.91-8.02 77.45-8.02L77.45-8.02Q78.16-8.02 78.76-7.75Q79.36-7.48 79.78-7.04L79.78-7.04L79.24-6.40Q78.88-6.74 78.44-6.94Q78.00-7.14 77.45-7.14L77.45-7.14Q76.79-7.14 76.39-6.83Q75.98-6.53 75.98-5.99L75.98-5.99Q75.98-5.70 76.10-5.50Q76.21-5.30 76.40-5.15Q76.60-5.00 76.82-4.89Q77.05-4.78 77.29-4.68L77.29-4.68L78.41-4.20Q78.74-4.06 79.04-3.87Q79.34-3.68 79.56-3.44Q79.78-3.19 79.90-2.86Q80.03-2.53 80.03-2.10L80.03-2.10Q80.03-1.63 79.84-1.22Q79.66-0.82 79.31-0.51Q78.96-0.20 78.47-0.03Q77.98 0.14 77.35 0.14L77.35 0.14Q76.52 0.14 75.82-0.17Q75.11-0.48 74.59-1.02L74.59-1.02ZM81.58 0L81.58-7.87L82.57-7.87L82.57 0L81.58 0ZM84.73 0L84.73-7.87L85.91-7.87L87.43-3.65L88.01-2.04L88.06-2.04L88.61-3.65L90.12-7.87L91.30-7.87L91.30 0L90.35 0L90.35-4.33Q90.35-4.86 90.39-5.50Q90.43-6.13 90.48-6.66L90.48-6.66L90.43-6.66L89.80-4.91L88.28-0.79L87.72-0.79L86.20-4.91L85.57-6.66L85.52-6.66Q85.56-6.13 85.61-5.50Q85.66-4.86 85.66-4.33L85.66-4.33L85.66 0L84.73 0ZM93.46 0L93.46-7.87L95.87-7.87Q96.52-7.87 97.06-7.75Q97.60-7.63 97.97-7.36Q98.35-7.09 98.56-6.65Q98.77-6.20 98.77-5.56L98.77-5.56Q98.77-4.93 98.56-4.48Q98.35-4.02 97.97-3.72Q97.58-3.42 97.05-3.27Q96.52-3.12 95.87-3.12L95.87-3.12L94.45-3.12L94.45 0L93.46 0ZM94.45-3.94L95.75-3.94Q96.78-3.94 97.28-4.33Q97.78-4.72 97.78-5.56L97.78-5.56Q97.78-6.41 97.27-6.74Q96.77-7.07 95.75-7.07L95.75-7.07L94.45-7.07L94.45-3.94ZM100.37 0L100.37-7.87L101.36-7.87L101.36-0.85L104.81-0.85L104.81 0L100.37 0ZM106.20 0L106.20-7.87L107.20-7.87L107.20 0L106.20 0ZM109.36 0L109.36-7.87L113.89-7.87L113.89-7.03L110.35-7.03L110.35-4.37L113.35-4.37L113.35-3.53L110.35-3.53L110.35 0L109.36 0ZM115.28 0L115.28-7.87L116.28-7.87L116.28 0L115.28 0ZM118.44 0L118.44-7.87L122.98-7.87L122.98-7.03L119.44-7.03L119.44-4.56L122.42-4.56L122.42-3.71L119.44-3.71L119.44-0.85L123.10-0.85L123.10 0L118.44 0ZM124.76 0L124.76-7.87L126.73-7.87Q128.56-7.87 129.50-6.86Q130.45-5.86 130.45-3.97L130.45-3.97Q130.45-3.04 130.21-2.30Q129.97-1.56 129.50-1.05Q129.04-0.54 128.35-0.27Q127.67 0 126.78 0L126.78 0L124.76 0ZM125.76-0.82L126.66-0.82Q128.04-0.82 128.73-1.64Q129.42-2.47 129.42-3.97L129.42-3.97Q129.42-5.47 128.73-6.26Q128.04-7.06 126.66-7.06L126.66-7.06L125.76-7.06L125.76-0.82Z" transform="translate(-0.336, 8.016)"/>
        </g>
      </g>
    </g>
  </g>
  <defs v-gra="od"/>
</svg>
